# xmcd CD database file
#
# Track frame offsets:
#	150
#	20036
#	39000
#	56582
#	80874
#	113175
#	134997
#	154240
#	171141
#	190390
#
# Disc length: 2756 seconds
#
# Revision: 0
# Processed by: cddbd v1.5.1PL0 Copyright (c) Steve Scherf et al.
# Submitted via: CDex 1.50
#
DISCID=8d0ac20a
DTITLE=K.M.E. - Aqua
DYEAR=2005
DGENRE=Game
TTITLE0=はじまりの予感
TTITLE1=のどか
TTITLE2=秋のひまわり
TTITLE3=夕涼み
TTITLE4=未来
TTITLE5=水月
TTITLE6=思い出
TTITLE7=葛藤
TTITLE8=いつも隣にある笑顔
TTITLE9=おもいで
EXTD=YEAR: 2005
EXTT0=
EXTT1=
EXTT2=
EXTT3=
EXTT4=
EXTT5=
EXTT6=
EXTT7=
EXTT8=
EXTT9=
PLAYORDER=
